<svg xmlns="http://www.w3.org/2000/svg" version="1.1" xmlns:xlink="http://www.w3.org/1999/xlink" xmlns:svgjs="http://svgjs.dev/svgjs" width="1439" height="750" preserveAspectRatio="none" viewBox="0 0 1439 750"><g mask="url(&quot;#SvgjsMask1018&quot;)" fill="none"><rect width="1439" height="750" x="0" y="0" fill="rgba(18, 29, 70, 1)"></rect><path d="M0,341.113C65.476,343.548,129.154,322.122,185.136,288.078C242.088,253.444,287.951,204.552,320.351,146.3C354.699,84.546,381.288,16.444,375.386,-53.972C369.307,-126.499,336.076,-194.931,287.228,-248.885C238.99,-302.165,170.893,-327.818,103.897,-353.84C31.093,-382.118,-42.464,-419.946,-119.461,-406.848C-200.093,-393.131,-284.885,-352.671,-324.29,-280.999C-362.869,-210.83,-301.078,-123.988,-318.007,-45.723C-337.031,42.226,-463.637,112.822,-427.278,195.132C-391.111,277.007,-261.195,245.693,-176.495,274.631C-115.774,295.377,-64.123,338.729,0,341.113" fill="#101a3f"></path><path d="M1439 1398.857C1558.352 1400.879 1635.813 1276.998 1737.443 1214.386 1841.598 1150.219 1994.906 1138.342 2043.8490000000002 1026.225 2092.851 913.9739999999999 1994.716 793.787 1973.728 673.1179999999999 1953.547 557.0889999999999 1999.5729999999999 420.092 1922.878 330.717 1846.1770000000001 241.334 1708.7730000000001 244.87099999999998 1592.143 228.44299999999998 1490.155 214.077 1388.98 214.11800000000005 1289.699 241.527 1189.142 269.289 1093.991 313.465 1019.5319999999999 386.529 940.9390000000001 463.649 882.483 559.217 856.818 666.295 829.558 780.026 814.635 906.848 870.145 1009.787 924.79 1111.121 1051.9569999999999 1139.3890000000001 1146.9850000000001 1204.384 1245.51 1271.771 1319.651 1396.835 1439 1398.857" fill="#14204d"></path></g><defs><mask id="SvgjsMask1018"><rect width="1439" height="750" fill="#ffffff"></rect></mask></defs></svg>